# xmcd
#
# Track frame offsets:
#	150
#	22996
#	47952
#	60661
#	76556
#	92915
#	109507
#	125958
#	152759
#	165629
#	184517
#	202396
#	215804
#	232588
#
# Disc length: 3328 seconds
#
# Revision: 1
# Processed by: cddbd v1.5.1PL0 Copyright (c) Steve Scherf et al.
# Submitted via: audiograbber 1.83.01
#
DISCID=b90cfe0e
DTITLE=Alexis Korner - THE BEST OF ALEXIS KORNER
DYEAR=2000
DGENRE=Blues
TTITLE0=HONKY TONK WOMAN
TTITLE1=GET OFF MY CLOUT
TTITLE2=I GOT CHA NUMBER
TTITLE3=SONG FOR JIMI
TTITLE4=STRANGE'N'DERANGED
TTITLE5=CAPTAINS TIGER
TTITLE6=SKIPPING
TTITLE7=STORMY MONDAY BLUES
TTITLE8=THE WASP [TEXAS RADIO]
TTITLE9=ROBERT JOHNSON
TTITLE10=YOU ARE MY SUNSHINE
TTITLE11=SLOW DOWN
TTITLE12=LOUISE
TTITLE13=HAMMER&NAILS
EXTD=
EXTT0=
EXTT1=
EXTT2=
EXTT3=
EXTT4=
EXTT5=
EXTT6=
EXTT7=
EXTT8=
EXTT9=
EXTT10=
EXTT11=
EXTT12=
EXTT13=
PLAYORDER=
